<svg id="Facebook-f_Logo-Blue-Logo.wine" xmlns="http://www.w3.org/2000/svg" width="1365.333" height="1365.333" viewBox="0 0 1365.333 1365.333">
  <path id="Tracciato_68" data-name="Tracciato 68" d="M1365.333,682.667C1365.333,305.64,1059.693,0,682.667,0S0,305.64,0,682.667c0,340.738,249.641,623.16,576,674.373V880H402.667V682.667H576v-150.4c0-171.094,101.917-265.6,257.853-265.6,74.69,0,152.814,13.333,152.814,13.333V448H900.584c-84.8,0-111.25,52.623-111.25,106.61V682.667H978.667L948.4,880H789.333v477.04c326.359-51.213,576-333.635,576-674.373" fill="#fff"/>
  <path id="Tracciato_69" data-name="Tracciato 69" d="M948.4,880l30.267-197.333H789.333V554.609C789.333,500.623,815.78,448,900.584,448h86.083V280s-78.124-13.333-152.814-13.333C677.917,266.667,576,361.173,576,532.267v150.4H402.667V880H576v477.04a690.134,690.134,0,0,0,213.333,0V880H948.4" fill="#1877f2"/>
</svg>
