<svg xmlns="http://www.w3.org/2000/svg" width="22.593" height="22.593" viewBox="0 0 22.593 22.593">
  <g id="content_copy-24px_1_" data-name="content_copy-24px (1)" transform="translate(0 0)">
    <path id="Tracciato_1541" data-name="Tracciato 1541" d="M0,0H22.593V22.593H0Z" transform="translate(0 0)" fill="none"/>
    <path id="Tracciato_1542" data-name="Tracciato 1542" d="M14.486,1H3.784A1.822,1.822,0,0,0,2,2.849v12.94H3.784V2.849h10.7Zm2.676,3.7H7.351A1.822,1.822,0,0,0,5.567,6.546v12.94a1.822,1.822,0,0,0,1.784,1.849h9.81a1.822,1.822,0,0,0,1.784-1.849V6.546A1.822,1.822,0,0,0,17.161,4.7Zm0,14.788H7.351V6.546h9.81Z" transform="translate(0.259 0.13)" fill="#424e5b"/>
  </g>
</svg>
