<svg xmlns="http://www.w3.org/2000/svg" width="23.593" height="23.593" viewBox="0 0 23.593 23.593">
  <g id="WA" transform="translate(0.5 0.5)">
    <g id="Raggruppa_1637" data-name="Raggruppa 1637" transform="translate(0 0)">
      <path id="Tracciato_1539" data-name="Tracciato 1539" d="M4.4,26.19l4.841-1.331A11.408,11.408,0,0,0,15.3,26.593,11.3,11.3,0,1,0,4,15.3a11.408,11.408,0,0,0,1.735,6.052Z" transform="translate(-4 -4)" fill="#25d366" stroke="#fff" stroke-miterlimit="10" stroke-width="1"/>
      <path id="Tracciato_1540" data-name="Tracciato 1540" d="M29.248,27.848a3.121,3.121,0,0,1-2.179,1.816,7.049,7.049,0,0,1-3.954-.847,9.776,9.776,0,0,1-4.236-3.752,5.842,5.842,0,0,1-.888-2.5,3.065,3.065,0,0,1,1.21-2.542.682.682,0,0,1,.4-.121h.605a.607.607,0,0,1,.565.4l.928,2.259a.7.7,0,0,1-.121.686l-.605.646a.608.608,0,0,0-.081.726,1.323,1.323,0,0,0,.242.323,7,7,0,0,0,2.784,2.179,2.782,2.782,0,0,0,.4.161.632.632,0,0,0,.686-.242l.484-.726a.6.6,0,0,1,.605-.282l2.421.363a.707.707,0,0,1,.524.484l.161.605A.379.379,0,0,1,29.248,27.848Z" transform="translate(-12.343 -13.485)" fill="#fff"/>
    </g>
  </g>
</svg>
