<svg xmlns="http://www.w3.org/2000/svg" width="22.593" height="22.594" viewBox="0 0 22.593 22.594">
  <path id="facebook-messenger-brands" d="M11.322,0C4.943,0,0,4.662,0,10.958a10.71,10.71,0,0,0,3.556,8.105c.38.342.3.54.367,2.652a.907.907,0,0,0,.936.877h0a.9.9,0,0,0,.332-.075c2.41-1.061,2.441-1.145,2.85-1.034,6.985,1.92,14.553-2.549,14.553-10.526C22.593,4.662,17.7,0,11.322,0Zm6.8,8.433L14.794,13.7a1.7,1.7,0,0,1-2.349.526,1.167,1.167,0,0,1-.107-.073l-2.646-1.98a.683.683,0,0,0-.82,0L5.3,14.877a.537.537,0,0,1-.779-.714L7.849,8.9A1.7,1.7,0,0,1,10.2,8.373h0c.036.023.072.048.107.074l2.645,1.98a.683.683,0,0,0,.82,0l3.572-2.7a.536.536,0,0,1,.778.712Z" fill="#0084ff"/>
</svg>
